<svg xmlns="http://www.w3.org/2000/svg" viewBox="0 0 32 32">
  <rect width="32" height="32" rx="7" fill="#101826"/>
  <rect x="5" y="12" width="9" height="7" rx="1.5" fill="#f8fafc"/>
  <rect x="18" y="12" width="9" height="7" rx="1.5" fill="#38bdf8"/>
  <rect x="5" y="21" width="9" height="7" rx="1.5" fill="#1d9bf0"/>
  <rect x="18" y="21" width="9" height="7" rx="1.5" fill="#1d9bf0"/>
  <path d="M12.4 5.2c1.3 1.4 1.9 2.7 1.9 4 0 1.1-.4 2-.9 2.7 1.4-.7 2.5-2.1 2.5-3.9 0-1.4-.7-2.8-2.1-4.3.1.8-.1 1.2-1.4 1.5Z" fill="#f59e0b"/>
  <path d="M10.8 8.5c-1.7 1.7-2.5 3.1-2.5 4.6 0 2.6 2 4.7 4.5 4.7s4.5-2.1 4.5-4.7c0-1.2-.4-2.1-1.4-3.5-.3 1.6-1.2 2.7-2.6 3.3.4-.8.4-1.7-.1-2.8-.4-.8-1.2-1.4-2.4-1.6Z" fill="#fb923c"/>
  <path d="M13.8 10.3c1.3 1.2 1.8 2.1 1.8 3.1 0 1.5-1.1 2.7-2.8 2.7-1 0-1.9-.5-2.4-1.3.8-.2 1.5-.7 2-1.4.6-.8.8-1.7 1.4-3.1Z" fill="#fde68a"/>
</svg>
